<?xml version="1.0" encoding="utf-8"?>
<!-- Generator: Adobe Illustrator 23.0.1, SVG Export Plug-In . SVG Version: 6.00 Build 0)  -->
<svg version="1.1" id="Layer_1" xmlns="http://www.w3.org/2000/svg" xmlns:xlink="http://www.w3.org/1999/xlink" x="0px" y="0px"
	 viewBox="0 0 550 370" style="enable-background:new 0 0 550 370;" xml:space="preserve">
<style type="text/css">
	.st0{fill:#F71CB9;}
	.st1{fill:#FBC926;}
	.st2{fill:#FF00ED;}
	.st3{fill:url(#SVGID_1_);}
	.st4{fill:url(#SVGID_2_);}
	.st5{fill:url(#SVGID_3_);}
	.st6{fill:url(#SVGID_4_);}
	.st7{fill:url(#SVGID_5_);}
	.st8{fill:url(#SVGID_6_);}
	.st9{fill:url(#SVGID_7_);}
	.st10{fill:url(#SVGID_8_);}
	.st11{fill:url(#SVGID_9_);}
	.st12{fill:url(#SVGID_10_);}
	.st13{fill:url(#SVGID_11_);}
	.st14{fill:url(#SVGID_12_);}
	.st15{fill:url(#SVGID_13_);}
	.st16{fill:url(#SVGID_14_);}
	.st17{fill:url(#SVGID_15_);}
	.st18{fill:url(#SVGID_16_);}
	.st19{fill:url(#SVGID_17_);}
	.st20{fill:url(#SVGID_18_);}
	.st21{fill:url(#SVGID_19_);}
	.st22{fill:url(#SVGID_20_);}
	.st23{fill:url(#SVGID_21_);}
	.st24{fill:url(#SVGID_22_);}
	.st25{fill:url(#SVGID_23_);}
	.st26{fill:url(#SVGID_24_);}
	.st27{fill:url(#SVGID_25_);}
	.st28{fill:url(#SVGID_26_);}
	.st29{fill:url(#SVGID_27_);}
	.st30{fill:url(#SVGID_28_);}
	.st31{fill:#FBCC34;}
	.st32{fill:#00E7F2;}
</style>
<g>
	<g>
		<g>
			<g>
				<g>
					<path class="st0" d="M162.97,150.93l-9.53,32.32h-4.27l-9.8-38.81h4.33l7.72,31.41l9.61-31.41h3.92l9.48,31.11
						c1.26-5.19,2.57-10.37,3.93-15.56c1.36-5.19,2.67-10.37,3.93-15.56h4.3l-9.8,38.81h-4.27L162.97,150.93z"/>
				</g>
				<g>
					<path class="st0" d="M177.55,184.25h-5.8l-8.78-29.78l-8.78,29.78h-5.8l-10.31-40.81h6.4l7.04,28.65l8.77-28.65h5.4l8.63,28.34
						c0.99-4,2.02-8.03,3.07-12.04c1.36-5.19,2.68-10.42,3.92-15.54l0.19-0.76h6.37L177.55,184.25z M173.25,182.25h2.75l9.3-36.81
						h-2.23c-1.19,4.89-2.45,9.86-3.75,14.81c-1.36,5.17-2.68,10.4-3.93,15.54l-0.86,3.55l-10.33-33.9h-2.44l-10.46,34.18
						l-8.4-34.18h-2.26l9.3,36.81h2.75l10.28-34.85L173.25,182.25z"/>
				</g>
			</g>
			<g>
				<g>
					<path class="st0" d="M259.25,177.85l11.12-33.41h4.55l-12.95,38.81h-5.18l-13.17-38.81h4.55L259.25,177.85z"/>
				</g>
				<g>
					<path class="st0" d="M262.69,184.25h-6.61l-13.85-40.81h6.66l10.37,31.24l10.4-31.24h6.65L262.69,184.25z M257.51,182.25h3.74
						l12.29-36.81h-2.44l-11.84,35.58l-11.81-35.58h-2.43L257.51,182.25z"/>
				</g>
			</g>
			<g>
				<g>
					<path class="st0" d="M305.59,144.44v3.75h-21.77v13.12h20.49v3.75h-20.49v14.43h22.73v3.75h-26.87v-38.81H305.59z"/>
				</g>
				<g>
					<path class="st0" d="M307.55,184.25h-28.87v-40.81h27.91v5.75h-21.77v11.12h20.49v5.75h-20.49v12.43h22.73V184.25z
						 M280.69,182.25h24.87v-1.75h-22.73v-16.43h20.49v-1.75h-20.49v-15.12h21.77v-1.75h-23.91V182.25z"/>
				</g>
			</g>
			<g>
				<g>
					<path class="st0" d="M341.11,155.48c0,0.97-0.11,1.91-0.34,2.84c-0.23,0.92-0.57,1.79-1.03,2.61
						c-0.46,0.82-1.03,1.58-1.71,2.29c-0.69,0.7-1.48,1.3-2.37,1.79c1,0.26,1.82,0.64,2.46,1.17c0.64,0.52,1.14,1.13,1.51,1.82
						c0.36,0.69,0.62,1.45,0.75,2.27c0.14,0.82,0.21,1.65,0.21,2.49v5.89c0,0.86,0.11,1.68,0.34,2.46c0.23,0.79,0.52,1.5,0.89,2.14
						h-4.49c-0.18-0.29-0.33-0.63-0.44-1.01c-0.11-0.38-0.19-0.78-0.25-1.18c-0.05-0.4-0.09-0.79-0.11-1.18
						c-0.02-0.38-0.03-0.72-0.03-1.01v-6.16c0-0.75-0.13-1.49-0.38-2.22c-0.26-0.73-0.67-1.38-1.23-1.96
						c-0.57-0.57-1.3-1.04-2.21-1.4c-0.9-0.36-2-0.53-3.3-0.53h-11.75v16.65h-4.13v-38.81h15.88c1.88,0,3.55,0.33,5.01,0.99
						c1.46,0.66,2.69,1.51,3.68,2.56c0.99,1.05,1.75,2.23,2.26,3.55C340.86,152.85,341.11,154.16,341.11,155.48z M317.64,162.95
						h11.75c1.02,0,1.99-0.2,2.9-0.59s1.72-0.93,2.41-1.6c0.69-0.68,1.24-1.47,1.64-2.38c0.4-0.91,0.6-1.9,0.6-2.96
						c0-1.04-0.19-2-0.57-2.88c-0.38-0.88-0.91-1.64-1.57-2.29c-0.67-0.65-1.46-1.15-2.38-1.52c-0.92-0.36-1.93-0.55-3.03-0.55
						h-11.75V162.95z"/>
				</g>
				<g>
					<path class="st0" d="M343.55,184.25h-6.77l-0.29-0.47c-0.23-0.37-0.42-0.8-0.55-1.27c-0.12-0.43-0.21-0.87-0.28-1.32
						c-0.06-0.43-0.1-0.85-0.12-1.27c-0.02-0.41-0.03-0.76-0.03-1.06v-6.16c0-0.63-0.11-1.27-0.33-1.89c-0.21-0.59-0.54-1.11-1-1.59
						c-0.46-0.47-1.09-0.86-1.86-1.17c-0.78-0.31-1.77-0.46-2.93-0.46h-10.75v16.65h-6.13v-40.81h16.88c2.01,0,3.84,0.36,5.42,1.07
						c1.57,0.71,2.92,1.64,4,2.78c1.08,1.14,1.91,2.44,2.46,3.87c0.55,1.43,0.84,2.88,0.84,4.31c0,1.05-0.13,2.08-0.37,3.08
						c-0.25,1.01-0.63,1.97-1.13,2.86c-0.49,0.89-1.12,1.73-1.87,2.5c-0.29,0.3-0.61,0.59-0.94,0.85c0.35,0.19,0.66,0.4,0.95,0.63
						c0.74,0.6,1.33,1.32,1.76,2.13c0.41,0.78,0.7,1.65,0.85,2.57c0.15,0.88,0.22,1.77,0.22,2.66v5.89c0,0.77,0.1,1.5,0.3,2.18
						c0.2,0.71,0.47,1.35,0.8,1.92L343.55,184.25z M337.95,182.25h2.31c-0.1-0.28-0.2-0.56-0.28-0.86
						c-0.25-0.86-0.38-1.79-0.38-2.74v-5.89c0-0.78-0.06-1.56-0.19-2.33c-0.12-0.71-0.34-1.38-0.65-1.97
						c-0.3-0.57-0.73-1.08-1.25-1.51c-0.52-0.43-1.22-0.75-2.08-0.97l-2.45-0.63l2.22-1.22c0.8-0.44,1.52-0.98,2.14-1.61
						c0.62-0.64,1.14-1.34,1.55-2.07c0.41-0.74,0.72-1.54,0.93-2.37c0.21-0.84,0.31-1.71,0.31-2.59c0-1.18-0.24-2.39-0.7-3.58
						c-0.46-1.19-1.15-2.27-2.05-3.22c-0.9-0.95-2.03-1.74-3.37-2.34c-1.33-0.6-2.87-0.9-4.6-0.9h-14.88v36.81h2.13v-16.65h12.75
						c1.42,0,2.65,0.2,3.67,0.6c1.03,0.41,1.89,0.95,2.55,1.62c0.67,0.68,1.16,1.46,1.46,2.33c0.29,0.84,0.44,1.7,0.44,2.55v6.16
						c0,0.28,0.01,0.6,0.02,0.97c0.02,0.35,0.05,0.71,0.1,1.08c0.05,0.35,0.12,0.71,0.22,1.04
						C337.89,182.06,337.92,182.16,337.95,182.25z M329.39,163.95h-12.75v-16.76h12.75c1.21,0,2.36,0.21,3.39,0.62
						c1.04,0.41,1.96,1,2.71,1.73c0.76,0.74,1.36,1.61,1.79,2.6c0.44,1,0.66,2.1,0.66,3.28c0,1.19-0.23,2.33-0.69,3.36
						c-0.45,1.03-1.08,1.93-1.86,2.69c-0.78,0.76-1.69,1.37-2.71,1.81C331.65,163.73,330.54,163.95,329.39,163.95z M318.64,161.95
						h10.75c0.88,0,1.72-0.17,2.51-0.51c0.79-0.34,1.5-0.81,2.11-1.4c0.6-0.58,1.08-1.28,1.42-2.07c0.34-0.78,0.52-1.64,0.52-2.56
						c0-0.9-0.17-1.73-0.49-2.48c-0.33-0.75-0.79-1.41-1.36-1.97c-0.57-0.55-1.26-0.99-2.05-1.31c-0.8-0.32-1.7-0.48-2.66-0.48
						h-10.75V161.95z"/>
				</g>
			</g>
			<g>
				<g>
					<path class="st0" d="M352.89,171.14c0.09,1.39,0.41,2.66,0.95,3.82c0.54,1.16,1.25,2.16,2.14,3.01
						c0.89,0.85,1.94,1.51,3.15,1.99c1.21,0.47,2.55,0.71,4.01,0.71c1.3,0,2.54-0.14,3.72-0.42c1.19-0.28,2.23-0.74,3.14-1.36
						c0.9-0.62,1.62-1.42,2.16-2.41c0.54-0.99,0.81-2.19,0.81-3.62c0-1.15-0.29-2.13-0.88-2.93c-0.58-0.8-1.35-1.5-2.3-2.09
						c-0.95-0.59-2.03-1.1-3.25-1.52c-1.21-0.42-2.44-0.82-3.68-1.21c-1.55-0.46-3.11-0.97-4.67-1.53
						c-1.56-0.57-2.97-1.29-4.22-2.16c-1.25-0.88-2.27-1.97-3.06-3.27c-0.78-1.31-1.18-2.93-1.18-4.86c0-1.61,0.32-3.03,0.95-4.26
						c0.63-1.23,1.51-2.27,2.66-3.11c1.14-0.84,2.5-1.47,4.08-1.9c1.58-0.43,3.32-0.64,5.22-0.64c1.68,0,3.17,0.17,4.46,0.51
						c1.3,0.34,2.43,0.79,3.41,1.37c0.98,0.57,1.8,1.24,2.47,2c0.66,0.76,1.21,1.57,1.64,2.42c0.43,0.86,0.75,1.74,0.96,2.64
						c0.21,0.9,0.34,1.78,0.4,2.62h-4.25c-0.11-1.3-0.42-2.44-0.93-3.42c-0.51-0.99-1.17-1.81-1.99-2.48
						c-0.81-0.66-1.75-1.17-2.81-1.51c-1.06-0.34-2.18-0.51-3.37-0.51c-1.08,0-2.14,0.11-3.19,0.33c-1.05,0.22-1.99,0.58-2.81,1.08
						c-0.82,0.5-1.49,1.15-2,1.94c-0.51,0.79-0.77,1.76-0.77,2.92c0,1.19,0.29,2.2,0.86,3.03c0.58,0.83,1.34,1.54,2.3,2.14
						c0.96,0.59,2.05,1.11,3.29,1.55c1.23,0.44,2.51,0.86,3.82,1.26c1.57,0.47,3.13,1,4.68,1.56s2.94,1.28,4.16,2.14
						c1.22,0.86,2.21,1.92,2.97,3.19c0.76,1.27,1.14,2.84,1.14,4.72c0,1.9-0.35,3.57-1.04,5c-0.69,1.43-1.66,2.63-2.9,3.6
						c-1.24,0.97-2.72,1.69-4.42,2.18c-1.71,0.48-3.57,0.72-5.6,0.72c-1.83,0-3.6-0.31-5.31-0.92s-3.25-1.49-4.59-2.64
						c-1.34-1.15-2.43-2.54-3.27-4.18c-0.84-1.63-1.29-3.46-1.34-5.49H352.89z"/>
				</g>
				<g>
					<path class="st0" d="M363.13,185.37c-1.93,0-3.83-0.33-5.65-0.97c-1.82-0.65-3.47-1.6-4.9-2.82c-1.44-1.23-2.62-2.74-3.51-4.48
						c-0.9-1.76-1.39-3.75-1.45-5.92l-0.03-1.03h6.24l0.06,0.93c0.08,1.26,0.37,2.42,0.85,3.46c0.48,1.04,1.13,1.96,1.92,2.71
						c0.79,0.75,1.74,1.35,2.82,1.78c2.09,0.82,4.82,0.8,7.14,0.25c1.06-0.25,2-0.66,2.8-1.21c0.77-0.53,1.39-1.22,1.85-2.06
						c0.46-0.83,0.69-1.89,0.69-3.14c0-0.94-0.22-1.71-0.69-2.34c-0.51-0.7-1.19-1.31-2.02-1.83c-0.88-0.55-1.9-1.03-3.04-1.42
						c-1.21-0.42-2.42-0.82-3.65-1.2c-1.55-0.46-3.14-0.98-4.72-1.55c-1.64-0.59-3.13-1.36-4.45-2.28
						c-1.36-0.96-2.49-2.16-3.34-3.58c-0.88-1.46-1.32-3.27-1.32-5.38c0-1.76,0.36-3.35,1.06-4.72c0.7-1.36,1.69-2.53,2.95-3.46
						c1.24-0.91,2.72-1.6,4.41-2.06c1.66-0.45,3.5-0.68,5.48-0.68c1.76,0,3.34,0.18,4.72,0.54c1.38,0.36,2.62,0.86,3.67,1.48
						c1.06,0.63,1.98,1.37,2.71,2.2c0.72,0.82,1.32,1.71,1.79,2.64c0.46,0.92,0.81,1.88,1.04,2.86c0.22,0.96,0.36,1.9,0.42,2.78
						l0.07,1.06h-6.23l-0.08-0.92c-0.1-1.16-0.37-2.18-0.82-3.05c-0.44-0.86-1.03-1.59-1.73-2.17c-0.71-0.58-1.54-1.03-2.48-1.33
						c-1.83-0.59-4.01-0.58-6.05-0.15c-0.93,0.19-1.77,0.52-2.49,0.96c-0.7,0.43-1.25,0.96-1.68,1.63
						c-0.41,0.63-0.61,1.41-0.61,2.38c0,0.99,0.22,1.79,0.68,2.46c0.49,0.71,1.17,1.34,2,1.85c0.89,0.56,1.93,1.04,3.1,1.46
						c1.21,0.43,2.48,0.85,3.78,1.25c1.57,0.47,3.16,1.01,4.73,1.58c1.62,0.59,3.1,1.35,4.39,2.25c1.34,0.94,2.43,2.12,3.26,3.5
						c0.85,1.42,1.28,3.18,1.28,5.24c0,2.05-0.38,3.87-1.14,5.43c-0.76,1.56-1.83,2.89-3.19,3.95c-1.34,1.04-2.95,1.84-4.77,2.35
						C367.22,185.11,365.24,185.37,363.13,185.37z M349.68,172.14c0.15,1.47,0.54,2.82,1.17,4.03c0.78,1.51,1.8,2.81,3.03,3.88
						c1.24,1.06,2.68,1.89,4.27,2.46c1.6,0.57,3.27,0.86,4.98,0.86c1.93,0,3.72-0.23,5.33-0.69c1.57-0.45,2.95-1.12,4.08-2
						c1.11-0.87,1.99-1.96,2.62-3.25c0.62-1.29,0.94-2.82,0.94-4.56c0-1.69-0.33-3.1-1-4.21c-0.68-1.14-1.58-2.11-2.69-2.89
						c-1.15-0.8-2.47-1.48-3.93-2.01c-1.54-0.56-3.09-1.08-4.63-1.54c-1.33-0.41-2.63-0.84-3.86-1.27c-1.3-0.46-2.47-1.01-3.48-1.64
						c-1.07-0.66-1.94-1.47-2.6-2.42c-0.69-1-1.04-2.21-1.04-3.6c0-1.34,0.31-2.5,0.92-3.46c0.59-0.92,1.37-1.68,2.32-2.26
						c0.91-0.56,1.97-0.97,3.12-1.21c2.38-0.49,4.9-0.49,7.07,0.2c1.18,0.38,2.23,0.94,3.14,1.68c0.92,0.75,1.67,1.69,2.24,2.79
						c0.45,0.86,0.76,1.83,0.93,2.88h2.25c-0.06-0.45-0.15-0.92-0.26-1.39c-0.19-0.82-0.49-1.64-0.88-2.42
						c-0.39-0.77-0.89-1.52-1.5-2.21c-0.59-0.67-1.34-1.28-2.22-1.79c-0.89-0.53-1.95-0.95-3.16-1.26
						c-1.21-0.31-2.63-0.47-4.21-0.47c-1.8,0-3.47,0.2-4.96,0.61c-1.45,0.4-2.71,0.98-3.75,1.74c-1.01,0.75-1.8,1.67-2.36,2.76
						c-0.56,1.09-0.84,2.37-0.84,3.81c0,1.74,0.35,3.2,1.04,4.35c0.71,1.18,1.64,2.17,2.77,2.97c1.17,0.82,2.51,1.51,3.98,2.04
						c1.53,0.56,3.08,1.07,4.61,1.51c1.26,0.39,2.5,0.8,3.73,1.22c1.28,0.44,2.44,0.99,3.45,1.62c1.05,0.66,1.92,1.45,2.58,2.35
						c0.71,0.98,1.07,2.16,1.07,3.52c0,1.59-0.31,2.96-0.93,4.1c-0.61,1.12-1.44,2.05-2.47,2.76c-1,0.69-2.17,1.19-3.47,1.5
						c-1.26,0.3-2.59,0.45-3.96,0.45c-1.58,0-3.05-0.26-4.38-0.78c-1.33-0.52-2.5-1.26-3.48-2.2c-0.97-0.93-1.76-2.04-2.35-3.31
						c-0.47-1-0.78-2.08-0.94-3.24H349.68z"/>
				</g>
			</g>
			<g>
				<g>
					<path class="st0" d="M409.96,144.44v3.75h-21.77v13.12h20.49v3.75h-20.49v14.43h22.73v3.75h-26.87v-38.81H409.96z"/>
				</g>
				<g>
					<path class="st0" d="M411.92,184.25h-28.87v-40.81h27.91v5.75h-21.77v11.12h20.49v5.75h-20.49v12.43h22.73V184.25z
						 M385.06,182.25h24.87v-1.75h-22.73v-16.43h20.49v-1.75h-20.49v-15.12h21.77v-1.75h-23.91V182.25z"/>
				</g>
			</g>
		</g>
		<g>
			<path class="st0" d="M215.47,135.48c-13.45,0-24.35,12.7-24.35,28.37c0,15.67,10.9,28.37,24.35,28.37
				c13.45,0,24.35-12.7,24.35-28.37C239.83,148.18,228.92,135.48,215.47,135.48z M223.53,178.84c0,4.45-3.61,8.05-8.05,8.05
				c-4.45,0-8.05-3.61-8.05-8.05v-30c0-4.45,3.61-8.05,8.05-8.05c4.45,0,8.05,3.61,8.05,8.05V178.84z"/>
		</g>
		<g>
			<g>
				<rect x="214.64" y="190.87" class="st0" width="2" height="19.83"/>
			</g>
			<g>
				<rect x="204.64" y="200.29" class="st0" width="21.67" height="2"/>
			</g>
		</g>
	</g>
	<g>
		<path d="M163.37,218.56v0.77h-0.17v-0.58h-5.25v15.52h0.58v0.21h-3.75v-0.21h0.56v-15.52h-5.3v0.58h-0.17v-0.77H163.37z"/>
		<path d="M174.84,234.28v0.17h-3.05v-0.17h0.41v-5.71c-0.06-0.81-0.43-3.02-1.82-3.02c-1.11,0-2.06,0.47-2.75,1.2v7.55h0.39v0.17
			h-3.19v-0.17h0.39v-15.61h-0.39v-0.17h3.19v0.17h-0.39v7.85c0.73-0.73,1.69-1.14,2.75-1.14c1.78,0,3.35,1.22,3.8,2.87
			c0.09,0.28,0.15,0.56,0.17,0.84c0,0.13,0.04,0.24,0.04,5.17H174.84z"/>
		<path d="M182.7,229.86h-4.22c0,1.26,0.11,4.44,2.12,4.44c1.57,0,3-0.77,3.82-2.14h0.21c-0.9,1.48-2.38,2.3-4.03,2.3
			c-0.36,0-0.92-0.08-1.14-0.13c-2.1-0.51-3.56-2.4-3.56-4.57c0-2.17,1.54-4.12,3.92-4.61c0.09,0,0.19,0,0.28-0.02
			c0.17-0.02,0.36-0.04,0.51-0.04c0.24,0,0.51,0.02,0.79,0.06c1.71,0.39,3.2,1.54,3.71,3.39c0.08,0.24,0.15,0.56,0.17,1.31H182.7z
			 M182.68,229.71c0-1.26-0.22-2.42-0.66-3.39c-0.21-0.43-0.6-0.97-1.22-1.05h-0.21h-0.23c-0.99,0.13-1.39,1.5-1.41,1.48
			c-0.28,0.88-0.41,1.74-0.49,2.96H182.68z"/>
		<path d="M204.33,229.15h0.21c0,1.56-0.67,2.89-1.71,3.88c-0.92,0.9-2.19,1.44-3.56,1.44c-2.96,0-5-2.45-5.21-5.36v-10.38h-0.69
			v-0.23h3.92v0.23h-0.73v10.94c0.08,1.2,0.45,2.25,0.88,3.13c0.36,0.6,0.88,1.37,1.69,1.46
			C201.98,234.26,204.08,232.24,204.33,229.15z M205,218.71h-0.47v10.44h-0.21v-10.44h-0.45v-0.21H205V218.71z"/>
		<path d="M216.42,234.3v0.17h-3.15v-0.17h0.41v-5.32c-0.06-1.05-0.28-3.64-1.89-3.64c-1.12,0-2.15,0.47-2.85,1.2v7.78h0.41v0.15
			h-3.3v-0.15h0.41v-9.01h-0.41v-0.19h3.3v0.19h-0.41v1.03c0.73-0.73,1.74-1.16,2.85-1.16c2.38,0,4.03,1.93,4.18,4.27v4.85H216.42z"
			/>
		<path d="M220.84,234.3h0.43v0.17h-3.26v-0.17h0.43v-9.03h-0.43v-0.19h3.26v0.19h-0.43V234.3z M218.45,222.55
			c0-0.66,0.54-1.2,1.2-1.2c0.66,0,1.2,0.54,1.2,1.2c0,0.66-0.54,1.18-1.2,1.18C218.99,223.73,218.45,223.21,218.45,222.55z"/>
		<path d="M230.87,225.25h-0.32l-3.8,9.22l-3.78-9.22h-0.32v-0.15h2.9v0.15h-0.32l2.59,6.3l2.59-6.3h-0.28v-0.15h0.75V225.25z"/>
		<path d="M237.71,229.86h-4.22c0,1.26,0.11,4.44,2.12,4.44c1.57,0,3-0.77,3.82-2.14h0.21c-0.9,1.48-2.38,2.3-4.03,2.3
			c-0.36,0-0.92-0.08-1.14-0.13c-2.1-0.51-3.56-2.4-3.56-4.57c0-2.17,1.54-4.12,3.92-4.61c0.09,0,0.19,0,0.28-0.02
			c0.17-0.02,0.36-0.04,0.51-0.04c0.24,0,0.51,0.02,0.79,0.06c1.71,0.39,3.2,1.54,3.71,3.39c0.08,0.24,0.15,0.56,0.17,1.31H237.71z
			 M237.69,229.71c0-1.26-0.22-2.42-0.66-3.39c-0.21-0.43-0.6-0.97-1.22-1.05h-0.21h-0.23c-0.99,0.13-1.39,1.5-1.41,1.48
			c-0.28,0.88-0.41,1.74-0.49,2.96H237.69z"/>
		<path d="M248.23,226.63c0,0.66-0.54,1.18-1.2,1.18c-0.67,0-1.2-0.52-1.2-1.18c0-0.39,0.15-0.71,0.45-0.96
			c-0.81,0.17-1.48,0.56-2.02,1.14v7.48h0.41v0.15h-3.2v-0.15h0.39v-9.05h-0.39v-0.15h3.2v0.15h-0.41v1.35
			c0.73-0.69,1.67-1.11,2.77-1.16C247.69,225.43,248.23,225.96,248.23,226.63z"/>
		<path d="M254.53,234.19c-0.47,0.19-0.97,0.28-1.5,0.28c-1.35-0.06-2.38-0.49-3.04-1.11c-0.28-0.28-0.49-0.56-0.49-0.99
			c0-0.69,0.56-1.26,1.24-1.26c0.69,0,1.26,0.56,1.26,1.26c0,0.67-0.56,1.24-1.26,1.24c-0.09,0-0.15,0-0.21-0.02
			c0.62,0.43,1.42,0.67,2.49,0.73c0.99,0,2.34-0.54,1.99-1.84c-0.13-0.36-0.45-0.6-0.77-0.77l-2.68-1.14
			c-0.96-0.36-2.06-1.37-2.06-2.79c0.09-1.69,1.87-2.7,3.47-2.7c1.2,0,2.25,0.47,2.87,1.22v-0.32h0.21v0.92h-0.21v-0.32
			c-0.58-0.82-1.61-1.37-2.87-1.37c-0.37,0-0.69,0.04-1.09,0.17c-0.75,0.32-1.07,1.07-0.84,1.65c0.13,0.32,0.43,0.56,0.71,0.73
			c0.17,0.09,0.34,0.19,0.52,0.24l2.36,1.01c0.45,0.21,1.76,0.92,1.91,2.4C256.55,232.71,255.78,233.6,254.53,234.19z"/>
		<path d="M264.63,229.86h-4.22c0,1.26,0.11,4.44,2.12,4.44c1.57,0,3-0.77,3.82-2.14h0.21c-0.9,1.48-2.38,2.3-4.03,2.3
			c-0.36,0-0.92-0.08-1.14-0.13c-2.1-0.51-3.56-2.4-3.56-4.57c0-2.17,1.54-4.12,3.92-4.61c0.09,0,0.19,0,0.28-0.02
			c0.17-0.02,0.36-0.04,0.51-0.04c0.24,0,0.51,0.02,0.79,0.06c1.71,0.39,3.2,1.54,3.71,3.39c0.07,0.24,0.15,0.56,0.17,1.31H264.63z
			 M264.61,229.71c0-1.26-0.22-2.42-0.66-3.39c-0.21-0.43-0.6-0.97-1.22-1.05h-0.21h-0.22c-0.99,0.13-1.39,1.5-1.41,1.48
			c-0.28,0.88-0.41,1.74-0.49,2.96H264.61z"/>
		<path d="M283.79,218.65v0.58h-0.17v-0.37h-5.64v7.72h4.65v-0.26h0.17v0.77h-0.17v-0.3h-4.65v7.48h0.49v0.21h-3.52v-0.21h0.54
			v-15.4h-0.54v-0.21H283.79z"/>
		<path d="M288.49,234.45c-2.44,0-4.7-2.04-4.7-4.7c0-2.19,1.56-4.16,3.73-4.61c0.21-0.06,0.34-0.06,0.54-0.07
			c2.57-0.21,5.13,1.78,5.13,4.5C293.2,232.33,291.17,234.45,288.49,234.45z M290.61,229.82c0-1.27-0.24-4.23-1.89-4.63
			c-0.11-0.02-0.24-0.02-0.38,0c-1.44,0.36-1.95,3.15-1.95,4.63c0,1.07-0.07,4.46,2.1,4.46
			C290.33,234.28,290.61,231.24,290.61,229.82z"/>
		<path d="M301.15,226.63c0,0.66-0.54,1.18-1.2,1.18c-0.67,0-1.2-0.52-1.2-1.18c0-0.39,0.15-0.71,0.45-0.96
			c-0.81,0.17-1.48,0.56-2.02,1.14v7.48h0.41v0.15h-3.2v-0.15h0.39v-9.05h-0.39v-0.15h3.2v0.15h-0.41v1.35
			c0.73-0.69,1.67-1.11,2.77-1.16C300.6,225.43,301.15,225.96,301.15,226.63z"/>
		<path d="M320.54,234.26h0.56v0.19h-3.63v-0.19h0.58v-7.38h-6.24v7.38h0.54v0.19h-3.6v-0.19h0.54v-15.53h-0.54v-0.19h0.54h2.51
			h0.54v0.19h-0.54v7.94h6.24v-7.94h-0.58v-0.19h0.58h2.49h0.56v0.19h-0.56V234.26z"/>
		<path d="M328.96,229.86h-4.22c0,1.26,0.11,4.44,2.12,4.44c1.57,0,3-0.77,3.82-2.14h0.21c-0.9,1.48-2.38,2.3-4.03,2.3
			c-0.36,0-0.92-0.08-1.14-0.13c-2.1-0.51-3.56-2.4-3.56-4.57c0-2.17,1.54-4.12,3.92-4.61c0.09,0,0.19,0,0.28-0.02
			c0.17-0.02,0.36-0.04,0.51-0.04c0.24,0,0.51,0.02,0.79,0.06c1.71,0.39,3.2,1.54,3.71,3.39c0.07,0.24,0.15,0.56,0.17,1.31H328.96z
			 M328.94,229.71c0-1.26-0.22-2.42-0.66-3.39c-0.21-0.43-0.6-0.97-1.22-1.05h-0.21h-0.22c-0.99,0.13-1.39,1.5-1.41,1.48
			c-0.28,0.88-0.41,1.74-0.49,2.96H328.94z"/>
		<path d="M339.48,226.63c0,0.66-0.54,1.18-1.2,1.18c-0.67,0-1.2-0.52-1.2-1.18c0-0.39,0.15-0.71,0.45-0.96
			c-0.81,0.17-1.48,0.56-2.02,1.14v7.48h0.41v0.15h-3.2v-0.15h0.39v-9.05h-0.39v-0.15h3.2v0.15h-0.41v1.35
			c0.73-0.69,1.67-1.11,2.77-1.16C338.93,225.43,339.48,225.96,339.48,226.63z"/>
		<path d="M358.33,218.58v0.15h-0.49v15.72h-0.21l-10.1-15.33v15.18h0.49v0.15h-1.2v-0.15h0.51l-0.06-15.53h-0.45v-0.19h3.75v0.19
			h-0.47l7.53,10.96v-11h-0.49v-0.15H358.33z"/>
		<path d="M366.23,229.86h-4.22c0,1.26,0.11,4.44,2.12,4.44c1.57,0,3-0.77,3.82-2.14h0.21c-0.9,1.48-2.38,2.3-4.03,2.3
			c-0.36,0-0.92-0.08-1.14-0.13c-2.1-0.51-3.56-2.4-3.56-4.57c0-2.17,1.54-4.12,3.92-4.61c0.09,0,0.19,0,0.28-0.02
			c0.17-0.02,0.36-0.04,0.51-0.04c0.24,0,0.51,0.02,0.79,0.06c1.71,0.39,3.2,1.54,3.71,3.39c0.07,0.24,0.15,0.56,0.17,1.31H366.23z
			 M366.21,229.71c0-1.26-0.22-2.42-0.66-3.39c-0.21-0.43-0.6-0.97-1.22-1.05h-0.21h-0.22c-0.99,0.13-1.39,1.5-1.41,1.48
			c-0.28,0.88-0.41,1.74-0.49,2.96H366.21z"/>
		<path d="M377.06,229.86h-4.22c0,1.26,0.11,4.44,2.12,4.44c1.57,0,3-0.77,3.82-2.14h0.21c-0.9,1.48-2.38,2.3-4.03,2.3
			c-0.36,0-0.92-0.08-1.14-0.13c-2.1-0.51-3.56-2.4-3.56-4.57c0-2.17,1.54-4.12,3.92-4.61c0.09,0,0.19,0,0.28-0.02
			c0.17-0.02,0.36-0.04,0.51-0.04c0.24,0,0.51,0.02,0.79,0.06c1.71,0.39,3.2,1.54,3.71,3.39c0.08,0.24,0.15,0.56,0.17,1.31H377.06z
			 M377.04,229.71c0-1.26-0.22-2.42-0.66-3.39c-0.21-0.43-0.6-0.97-1.22-1.05h-0.21h-0.23c-0.99,0.13-1.39,1.5-1.41,1.48
			c-0.28,0.88-0.41,1.74-0.49,2.96H377.04z"/>
		<path d="M384.92,225.34c0.28-0.02,0.49-0.06,0.77-0.06c1.33,0,2.53,0.52,3.37,1.42v-8.02h-0.37v-0.17h3.17v0.17h-0.37v15.63h0.37
			v0.17h-3.17v-0.17h0.37v-1.22c-0.84,0.9-2.04,1.42-3.37,1.42c-0.3,0-0.58-0.04-0.86-0.09l-0.21-0.02v-0.04
			c-2.1-0.51-3.52-2.32-3.52-4.48c0-2.14,1.52-4.07,3.63-4.52L384.92,225.34z M385.69,234.37c1.33,0,2.57-0.6,3.37-1.5v-5.94
			c-0.84-0.96-2.04-1.5-3.37-1.5c-2.04,0-2.08,4.03-2.08,4.46C383.6,231.75,384.19,234.37,385.69,234.37z"/>
		<path d="M398.02,234.19c-0.47,0.19-0.97,0.28-1.5,0.28c-1.35-0.06-2.38-0.49-3.04-1.11c-0.28-0.28-0.49-0.56-0.49-0.99
			c0-0.69,0.56-1.26,1.24-1.26c0.69,0,1.25,0.56,1.25,1.26c0,0.67-0.56,1.24-1.25,1.24c-0.09,0-0.15,0-0.21-0.02
			c0.62,0.43,1.42,0.67,2.49,0.73c0.99,0,2.34-0.54,1.99-1.84c-0.13-0.36-0.45-0.6-0.77-0.77l-2.68-1.14
			c-0.96-0.36-2.06-1.37-2.06-2.79c0.09-1.69,1.87-2.7,3.47-2.7c1.2,0,2.25,0.47,2.87,1.22v-0.32h0.21v0.92h-0.21v-0.32
			c-0.58-0.82-1.61-1.37-2.87-1.37c-0.38,0-0.69,0.04-1.09,0.17c-0.75,0.32-1.07,1.07-0.84,1.65c0.13,0.32,0.43,0.56,0.71,0.73
			c0.17,0.09,0.34,0.19,0.52,0.24l2.36,1.01c0.45,0.21,1.76,0.92,1.91,2.4C400.04,232.71,399.27,233.6,398.02,234.19z"/>
	</g>
</g>
</svg>
